<svg width="1920" height="344" viewBox="0 0 1920 344" fill="none" xmlns="http://www.w3.org/2000/svg">
<path fill-rule="evenodd" clip-rule="evenodd" d="M1939 146.869L1911.35 123.003C1885.16 98.2187 1831.32 48.6504 1777.49 48.6504C1723.65 48.6504 1668.35 98.2187 1614.51 110.152C1560.68 123.003 1506.84 98.2187 1453 86.2856C1399.16 73.4345 1345.32 73.4345 1291.49 79.8601C1237.65 86.2856 1182.35 98.2187 1128.51 141.361C1074.68 184.504 1020.84 257.939 967 288.231C913.162 319.44 859.323 306.589 805.485 288.231C751.647 269.872 696.353 245.088 642.515 221.222C588.677 196.437 534.838 171.653 481 178.079C427.162 184.504 373.323 221.222 319.485 245.088C265.647 269.872 210.353 281.805 156.515 257.939C102.677 233.155 48.8383 171.653 22.6467 141.361L-4.99998 110.152V0H22.6467C48.8383 0 102.677 0 156.515 0C210.353 0 265.647 0 319.485 0C373.323 0 427.162 0 481 0C534.838 0 588.677 0 642.515 0C696.353 0 751.647 0 805.485 0C859.323 0 913.162 0 967 0C1020.84 0 1074.68 0 1128.51 0C1182.35 0 1237.65 0 1291.49 0C1345.32 0 1399.16 0 1453 0C1506.84 0 1560.68 0 1614.51 0C1668.35 0 1723.65 0 1777.49 0C1831.32 0 1885.16 0 1911.35 0H1939V146.869Z" fill="#2A2A2A"/>
<path fill-rule="evenodd" clip-rule="evenodd" d="M1939 154.045L1911.35 130.178C1885.16 105.394 1831.32 55.8259 1777.49 55.8259C1723.65 55.8259 1668.35 105.394 1614.51 117.327C1560.68 130.178 1506.84 105.394 1453 93.4611C1399.16 80.6101 1345.32 80.6101 1291.49 87.0356C1237.65 93.4611 1182.35 105.394 1128.51 148.537C1074.68 191.68 1020.84 265.114 967 295.406C913.162 326.616 859.323 313.765 805.485 295.406C751.647 277.047 696.353 252.263 642.515 228.397C588.677 203.613 534.838 178.829 481 185.254C427.162 191.68 373.323 228.397 319.485 252.263C265.647 277.047 210.353 288.981 156.515 265.114C102.677 240.33 48.8383 178.829 22.6467 148.537L-4.99998 117.327V7.17554H22.6467C48.8383 7.17554 102.677 7.17554 156.515 7.17554C210.353 7.17554 265.647 7.17554 319.485 7.17554C373.323 7.17554 427.162 7.17554 481 7.17554C534.838 7.17554 588.677 7.17554 642.515 7.17554C696.353 7.17554 751.647 7.17554 805.485 7.17554C859.323 7.17554 913.162 7.17554 967 7.17554C1020.84 7.17554 1074.68 7.17554 1128.51 7.17554C1182.35 7.17554 1237.65 7.17554 1291.49 7.17554C1345.32 7.17554 1399.16 7.17554 1453 7.17554C1506.84 7.17554 1560.68 7.17554 1614.51 7.17554C1668.35 7.17554 1723.65 7.17554 1777.49 7.17554C1831.32 7.17554 1885.16 7.17554 1911.35 7.17554H1939V154.045Z" stroke="#2A2A2A"/>
<path fill-rule="evenodd" clip-rule="evenodd" d="M1939 161.221L1911.35 137.354C1885.16 112.57 1831.32 63.0019 1777.49 63.0019C1723.65 63.0019 1668.35 112.57 1614.51 124.503C1560.68 137.354 1506.84 112.57 1453 100.637C1399.16 87.7861 1345.32 87.7861 1291.49 94.2116C1237.65 100.637 1182.35 112.57 1128.51 155.713C1074.68 198.856 1020.84 272.29 967 302.582C913.162 333.792 859.323 320.941 805.485 302.582C751.647 284.224 696.353 259.439 642.515 235.573C588.677 210.789 534.838 186.005 481 192.43C427.162 198.856 373.323 235.573 319.485 259.439C265.647 284.224 210.353 296.157 156.515 272.29C102.677 247.506 48.8383 186.005 22.6467 155.713L-4.99998 124.503V14.3516H22.6467C48.8383 14.3516 102.677 14.3516 156.515 14.3516C210.353 14.3516 265.647 14.3516 319.485 14.3516C373.323 14.3516 427.162 14.3516 481 14.3516C534.838 14.3516 588.677 14.3516 642.515 14.3516C696.353 14.3516 751.647 14.3516 805.485 14.3516C859.323 14.3516 913.162 14.3516 967 14.3516C1020.84 14.3516 1074.68 14.3516 1128.51 14.3516C1182.35 14.3516 1237.65 14.3516 1291.49 14.3516C1345.32 14.3516 1399.16 14.3516 1453 14.3516C1506.84 14.3516 1560.68 14.3516 1614.51 14.3516C1668.35 14.3516 1723.65 14.3516 1777.49 14.3516C1831.32 14.3516 1885.16 14.3516 1911.35 14.3516H1939V161.221Z" stroke="#2A2A2A"/>
<path fill-rule="evenodd" clip-rule="evenodd" d="M1939 168.396L1911.35 144.53C1885.16 119.746 1831.32 70.1775 1777.49 70.1775C1723.65 70.1775 1668.35 119.746 1614.51 131.679C1560.68 144.53 1506.84 119.746 1453 107.813C1399.16 94.9616 1345.32 94.9616 1291.49 101.387C1237.65 107.813 1182.35 119.746 1128.51 162.889C1074.68 206.031 1020.84 279.466 967 309.758C913.162 340.967 859.323 328.116 805.485 309.758C751.647 291.399 696.353 266.615 642.515 242.749C588.677 217.965 534.838 193.18 481 199.606C427.162 206.031 373.323 242.749 319.485 266.615C265.647 291.399 210.353 303.332 156.515 279.466C102.677 254.682 48.8383 193.18 22.6467 162.889L-4.99998 131.679V21.5271H22.6467C48.8383 21.5271 102.677 21.5271 156.515 21.5271C210.353 21.5271 265.647 21.5271 319.485 21.5271C373.323 21.5271 427.162 21.5271 481 21.5271C534.838 21.5271 588.677 21.5271 642.515 21.5271C696.353 21.5271 751.647 21.5271 805.485 21.5271C859.323 21.5271 913.162 21.5271 967 21.5271C1020.84 21.5271 1074.68 21.5271 1128.51 21.5271C1182.35 21.5271 1237.65 21.5271 1291.49 21.5271C1345.32 21.5271 1399.16 21.5271 1453 21.5271C1506.84 21.5271 1560.68 21.5271 1614.51 21.5271C1668.35 21.5271 1723.65 21.5271 1777.49 21.5271C1831.32 21.5271 1885.16 21.5271 1911.35 21.5271H1939V168.396Z" stroke="#2A2A2A"/>
<path fill-rule="evenodd" clip-rule="evenodd" d="M1939 175.572L1911.35 151.706C1885.16 126.922 1831.32 77.3533 1777.49 77.3533C1723.65 77.3533 1668.35 126.922 1614.51 138.855C1560.68 151.706 1506.84 126.922 1453 114.988C1399.16 102.137 1345.32 102.137 1291.49 108.563C1237.65 114.988 1182.35 126.922 1128.51 170.064C1074.68 213.207 1020.84 286.642 967 316.933C913.162 348.143 859.323 335.292 805.485 316.933C751.647 298.575 696.353 273.791 642.515 249.924C588.677 225.14 534.838 200.356 481 206.782C427.162 213.207 373.323 249.924 319.485 273.791C265.647 298.575 210.353 310.508 156.515 286.642C102.677 261.858 48.8383 200.356 22.6467 170.064L-4.99998 138.855V28.7029H22.6467C48.8383 28.7029 102.677 28.7029 156.515 28.7029C210.353 28.7029 265.647 28.7029 319.485 28.7029C373.323 28.7029 427.162 28.7029 481 28.7029C534.838 28.7029 588.677 28.7029 642.515 28.7029C696.353 28.7029 751.647 28.7029 805.485 28.7029C859.323 28.7029 913.162 28.7029 967 28.7029C1020.84 28.7029 1074.68 28.7029 1128.51 28.7029C1182.35 28.7029 1237.65 28.7029 1291.49 28.7029C1345.32 28.7029 1399.16 28.7029 1453 28.7029C1506.84 28.7029 1560.68 28.7029 1614.51 28.7029C1668.35 28.7029 1723.65 28.7029 1777.49 28.7029C1831.32 28.7029 1885.16 28.7029 1911.35 28.7029H1939V175.572Z" stroke="#2A2A2A"/>
<path fill-rule="evenodd" clip-rule="evenodd" d="M1939 182.748L1911.35 158.882C1885.16 134.097 1831.32 84.529 1777.49 84.529C1723.65 84.529 1668.35 134.097 1614.51 146.03C1560.68 158.882 1506.84 134.097 1453 122.164C1399.16 109.313 1345.32 109.313 1291.49 115.739C1237.65 122.164 1182.35 134.097 1128.51 177.24C1074.68 220.383 1020.84 293.817 967 324.109C913.162 355.319 859.323 342.468 805.485 324.109C751.647 305.751 696.353 280.966 642.515 257.1C588.677 232.316 534.838 207.532 481 213.957C427.162 220.383 373.323 257.1 319.485 280.966C265.647 305.751 210.353 317.684 156.515 293.817C102.677 269.033 48.8383 207.532 22.6467 177.24L-4.99998 146.03V35.8787H22.6467C48.8383 35.8787 102.677 35.8787 156.515 35.8787C210.353 35.8787 265.647 35.8787 319.485 35.8787C373.323 35.8787 427.162 35.8787 481 35.8787C534.838 35.8787 588.677 35.8787 642.515 35.8787C696.353 35.8787 751.647 35.8787 805.485 35.8787C859.323 35.8787 913.162 35.8787 967 35.8787C1020.84 35.8787 1074.68 35.8787 1128.51 35.8787C1182.35 35.8787 1237.65 35.8787 1291.49 35.8787C1345.32 35.8787 1399.16 35.8787 1453 35.8787C1506.84 35.8787 1560.68 35.8787 1614.51 35.8787C1668.35 35.8787 1723.65 35.8787 1777.49 35.8787C1831.32 35.8787 1885.16 35.8787 1911.35 35.8787H1939V182.748Z" stroke="#2A2A2A"/>
<path fill-rule="evenodd" clip-rule="evenodd" d="M1939 182.748L1911.35 158.882C1885.16 134.097 1831.32 84.529 1777.49 84.529C1723.65 84.529 1668.35 134.097 1614.51 146.03C1560.68 158.882 1506.84 134.097 1453 122.164C1399.16 109.313 1345.32 109.313 1291.49 115.739C1237.65 122.164 1182.35 134.097 1128.51 177.24C1074.68 220.383 1020.84 293.817 967 324.109C913.162 355.319 859.323 342.468 805.485 324.109C751.647 305.751 696.353 280.966 642.515 257.1C588.677 232.316 534.838 207.532 481 213.957C427.162 220.383 373.323 257.1 319.485 280.966C265.647 305.751 210.353 317.684 156.515 293.817C102.677 269.033 48.8383 207.532 22.6467 177.24L-4.99998 146.03V35.8787H22.6467C48.8383 35.8787 102.677 35.8787 156.515 35.8787C210.353 35.8787 265.647 35.8787 319.485 35.8787C373.323 35.8787 427.162 35.8787 481 35.8787C534.838 35.8787 588.677 35.8787 642.515 35.8787C696.353 35.8787 751.647 35.8787 805.485 35.8787C859.323 35.8787 913.162 35.8787 967 35.8787C1020.84 35.8787 1074.68 35.8787 1128.51 35.8787C1182.35 35.8787 1237.65 35.8787 1291.49 35.8787C1345.32 35.8787 1399.16 35.8787 1453 35.8787C1506.84 35.8787 1560.68 35.8787 1614.51 35.8787C1668.35 35.8787 1723.65 35.8787 1777.49 35.8787C1831.32 35.8787 1885.16 35.8787 1911.35 35.8787H1939V182.748Z" stroke="#2A2A2A"/>
</svg>
